<svg width="1280" height="640" viewBox="0 0 1280 640" fill="none" xmlns="http://www.w3.org/2000/svg" role="img" aria-labelledby="title desc">
  <title id="title">Bitvoya MCP</title>
  <desc id="desc">Luxury hotel intelligence and secure checkout handoff for AI travel agents.</desc>
  <defs>
    <linearGradient id="bg" x1="80" y1="72" x2="1208" y2="592" gradientUnits="userSpaceOnUse">
      <stop offset="0" stop-color="#0B1220"/>
      <stop offset="0.45" stop-color="#111B2C"/>
      <stop offset="1" stop-color="#1A2432"/>
    </linearGradient>
    <linearGradient id="gold" x1="216" y1="160" x2="676" y2="456" gradientUnits="userSpaceOnUse">
      <stop offset="0" stop-color="#F7D686"/>
      <stop offset="0.45" stop-color="#D4A84C"/>
      <stop offset="1" stop-color="#8C6421"/>
    </linearGradient>
    <linearGradient id="teal" x1="924" y1="116" x2="1148" y2="420" gradientUnits="userSpaceOnUse">
      <stop offset="0" stop-color="#45D0C0"/>
      <stop offset="1" stop-color="#1F7D79"/>
    </linearGradient>
    <radialGradient id="goldGlow" cx="0" cy="0" r="1" gradientUnits="userSpaceOnUse" gradientTransform="translate(304 196) rotate(40.9369) scale(314.514 230.892)">
      <stop stop-color="#E4B45A" stop-opacity="0.32"/>
      <stop offset="1" stop-color="#E4B45A" stop-opacity="0"/>
    </radialGradient>
    <radialGradient id="tealGlow" cx="0" cy="0" r="1" gradientUnits="userSpaceOnUse" gradientTransform="translate(1044 214) rotate(90) scale(220 220)">
      <stop stop-color="#2DBDB2" stop-opacity="0.26"/>
      <stop offset="1" stop-color="#2DBDB2" stop-opacity="0"/>
    </radialGradient>
    <filter id="soft" x="-80" y="-80" width="1440" height="800" filterUnits="userSpaceOnUse">
      <feGaussianBlur stdDeviation="40"/>
    </filter>
  </defs>

  <rect width="1280" height="640" rx="36" fill="url(#bg)"/>
  <g filter="url(#soft)">
    <circle cx="304" cy="196" r="150" fill="url(#goldGlow)"/>
    <circle cx="1044" cy="214" r="126" fill="url(#tealGlow)"/>
  </g>

  <g opacity="0.2">
    <path d="M90 162H618" stroke="#E8E2D6" stroke-width="1"/>
    <path d="M90 232H618" stroke="#E8E2D6" stroke-width="1"/>
    <path d="M90 302H618" stroke="#E8E2D6" stroke-width="1"/>
    <path d="M90 372H618" stroke="#E8E2D6" stroke-width="1"/>
    <path d="M90 442H618" stroke="#E8E2D6" stroke-width="1"/>
    <path d="M138 116V466" stroke="#E8E2D6" stroke-width="1"/>
    <path d="M224 116V466" stroke="#E8E2D6" stroke-width="1"/>
    <path d="M310 116V466" stroke="#E8E2D6" stroke-width="1"/>
    <path d="M396 116V466" stroke="#E8E2D6" stroke-width="1"/>
    <path d="M482 116V466" stroke="#E8E2D6" stroke-width="1"/>
    <path d="M568 116V466" stroke="#E8E2D6" stroke-width="1"/>
  </g>

  <rect x="84" y="96" width="154" height="36" rx="18" fill="rgba(255,255,255,0.08)" stroke="rgba(255,255,255,0.14)"/>
  <text x="161" y="119" text-anchor="middle" fill="#F3ECDD" font-size="15" font-family="system-ui, -apple-system, Segoe UI, sans-serif" letter-spacing="2.4">HOSTED REMOTE MCP</text>

  <text x="88" y="214" fill="#F8F4EC" font-size="78" font-weight="700" font-family="system-ui, -apple-system, Segoe UI, sans-serif" letter-spacing="-2.5">Bitvoya MCP</text>
  <text x="90" y="270" fill="#CDBFA2" font-size="28" font-family="system-ui, -apple-system, Segoe UI, sans-serif">Luxury hotel intelligence and secure checkout handoff</text>
  <text x="90" y="308" fill="#CDBFA2" font-size="28" font-family="system-ui, -apple-system, Segoe UI, sans-serif">for AI travel agents and premium concierge workflows.</text>

  <text x="90" y="382" fill="#EDE6D8" font-size="17" font-family="ui-monospace, SFMono-Regular, Menlo, monospace" letter-spacing="1.3">SEARCH</text>
  <text x="186" y="382" fill="#8F7650" font-size="17" font-family="ui-monospace, SFMono-Regular, Menlo, monospace">/</text>
  <text x="214" y="382" fill="#EDE6D8" font-size="17" font-family="ui-monospace, SFMono-Regular, Menlo, monospace" letter-spacing="1.3">COMPARE</text>
  <text x="342" y="382" fill="#8F7650" font-size="17" font-family="ui-monospace, SFMono-Regular, Menlo, monospace">/</text>
  <text x="370" y="382" fill="#EDE6D8" font-size="17" font-family="ui-monospace, SFMono-Regular, Menlo, monospace" letter-spacing="1.3">QUOTE</text>
  <text x="460" y="382" fill="#8F7650" font-size="17" font-family="ui-monospace, SFMono-Regular, Menlo, monospace">/</text>
  <text x="488" y="382" fill="#EDE6D8" font-size="17" font-family="ui-monospace, SFMono-Regular, Menlo, monospace" letter-spacing="1.3">HANDOFF</text>

  <rect x="88" y="420" width="164" height="44" rx="22" fill="url(#gold)"/>
  <text x="170" y="448" text-anchor="middle" fill="#111318" font-size="17" font-weight="700" font-family="system-ui, -apple-system, Segoe UI, sans-serif">Claude 4.6 / GPT-5.4</text>

  <rect x="268" y="420" width="132" height="44" rx="22" fill="rgba(255,255,255,0.08)" stroke="rgba(255,255,255,0.14)"/>
  <text x="334" y="448" text-anchor="middle" fill="#F7F1E5" font-size="17" font-weight="600" font-family="system-ui, -apple-system, Segoe UI, sans-serif">Agent Keys</text>

  <rect x="416" y="420" width="150" height="44" rx="22" fill="rgba(255,255,255,0.08)" stroke="rgba(255,255,255,0.14)"/>
  <text x="491" y="448" text-anchor="middle" fill="#F7F1E5" font-size="17" font-weight="600" font-family="system-ui, -apple-system, Segoe UI, sans-serif">Streamable HTTP</text>

  <g>
    <rect x="752" y="84" width="446" height="472" rx="28" fill="rgba(9,13,20,0.38)" stroke="rgba(255,255,255,0.1)"/>
    <rect x="784" y="116" width="190" height="24" rx="12" fill="rgba(255,255,255,0.08)"/>
    <rect x="784" y="156" width="382" height="152" rx="24" fill="rgba(255,255,255,0.04)" stroke="rgba(255,255,255,0.08)"/>
    <rect x="816" y="188" width="118" height="88" rx="18" fill="rgba(255,255,255,0.05)" stroke="rgba(255,255,255,0.1)"/>
    <path d="M844 254V210L874 184L904 210V254H844Z" fill="rgba(255,255,255,0.08)" stroke="rgba(255,255,255,0.22)"/>
    <path d="M874 184V166" stroke="#F5D28D" stroke-width="4" stroke-linecap="round"/>
    <circle cx="988" cy="202" r="8" fill="#F2CB7C"/>
    <circle cx="1018" cy="202" r="8" fill="#F2CB7C"/>
    <circle cx="1048" cy="202" r="8" fill="#F2CB7C"/>
    <rect x="968" y="230" width="166" height="12" rx="6" fill="rgba(255,255,255,0.18)"/>
    <rect x="968" y="252" width="136" height="12" rx="6" fill="rgba(255,255,255,0.1)"/>
    <rect x="784" y="330" width="382" height="90" rx="24" fill="rgba(255,255,255,0.04)" stroke="rgba(255,255,255,0.08)"/>
    <rect x="812" y="360" width="116" height="18" rx="9" fill="rgba(255,255,255,0.16)"/>
    <rect x="944" y="360" width="96" height="18" rx="9" fill="rgba(255,255,255,0.09)"/>
    <rect x="1054" y="360" width="80" height="18" rx="9" fill="url(#gold)"/>
    <rect x="784" y="442" width="382" height="82" rx="24" fill="rgba(255,255,255,0.04)" stroke="rgba(255,255,255,0.08)"/>
    <circle cx="828" cy="483" r="16" fill="url(#teal)"/>
    <path d="M820 483L826 489L837 476" stroke="#081015" stroke-width="4" stroke-linecap="round" stroke-linejoin="round"/>
    <rect x="860" y="470" width="152" height="12" rx="6" fill="rgba(255,255,255,0.18)"/>
    <rect x="860" y="492" width="112" height="12" rx="6" fill="rgba(255,255,255,0.1)"/>
    <text x="784" y="142" fill="#8EE4DA" font-size="14" font-family="ui-monospace, SFMono-Regular, Menlo, monospace" letter-spacing="1.6">HOSTED FLOW</text>
    <text x="784" y="320" fill="#F1E8D7" font-size="14" font-family="ui-monospace, SFMono-Regular, Menlo, monospace" letter-spacing="1.6">QUOTE + BENEFITS</text>
    <text x="784" y="432" fill="#F1E8D7" font-size="14" font-family="ui-monospace, SFMono-Regular, Menlo, monospace" letter-spacing="1.6">SECURE HANDOFF</text>
  </g>

  <path d="M736 558C826 525 886 500 960 470C1045 434 1117 385 1198 317" stroke="rgba(255,255,255,0.14)" stroke-width="2" stroke-dasharray="8 10"/>
  <circle cx="737" cy="558" r="5" fill="#F1C873"/>
  <circle cx="959" cy="470" r="5" fill="#F1C873"/>
  <circle cx="1196" cy="318" r="5" fill="#2FBEB2"/>
</svg>
