<svg width="1280" height="640" viewBox="0 0 1280 640" fill="none" xmlns="http://www.w3.org/2000/svg" role="img" aria-labelledby="title desc">
  <title id="title">Bitvoya MCP</title>
  <desc id="desc">Luxury hotel intelligence and secure checkout handoff for AI travel agents.</desc>
  <defs>
    <linearGradient id="bg" x1="80" y1="72" x2="1208" y2="592" gradientUnits="userSpaceOnUse">
      <stop offset="0" stop-color="#0B1220"/>
      <stop offset="0.45" stop-color="#111B2C"/>
      <stop offset="1" stop-color="#1A2432"/>
    </linearGradient>
    <linearGradient id="gold" x1="216" y1="160" x2="676" y2="456" gradientUnits="userSpaceOnUse">
      <stop offset="0" stop-color="#F7D686"/>
      <stop offset="0.45" stop-color="#D4A84C"/>
      <stop offset="1" stop-color="#8C6421"/>
    </linearGradient>
    <linearGradient id="teal" x1="924" y1="116" x2="1148" y2="420" gradientUnits="userSpaceOnUse">
      <stop offset="0" stop-color="#45D0C0"/>
      <stop offset="1" stop-color="#1F7D79"/>
    </linearGradient>
    <radialGradient id="goldGlow" cx="0" cy="0" r="1" gradientUnits="userSpaceOnUse" gradientTransform="translate(304 196) rotate(40.9369) scale(314.514 230.892)">
      <stop stop-color="#E4B45A" stop-opacity="0.32"/>
      <stop offset="1" stop-color="#E4B45A" stop-opacity="0"/>
    </radialGradient>
    <radialGradient id="tealGlow" cx="0" cy="0" r="1" gradientUnits="userSpaceOnUse" gradientTransform="translate(1044 214) rotate(90) scale(220 220)">
      <stop stop-color="#2DBDB2" stop-opacity="0.26"/>
      <stop offset="1" stop-color="#2DBDB2" stop-opacity="0"/>
    </radialGradient>
    <filter id="soft" x="-80" y="-80" width="1440" height="800" filterUnits="userSpaceOnUse">
      <feGaussianBlur stdDeviation="40"/>
    </filter>
  </defs>

  <rect width="1280" height="640" rx="36" fill="url(#bg)"/>
  <g filter="url(#soft)">
    <circle cx="304" cy="196" r="150" fill="url(#goldGlow)"/>
    <circle cx="1044" cy="214" r="126" fill="url(#tealGlow)"/>
  </g>

  <g opacity="0.2">
    <path d="M90 162H618" stroke="#E8E2D6" stroke-width="1"/>
    <path d="M90 232H618" stroke="#E8E2D6" stroke-width="1"/>
    <path d="M90 302H618" stroke="#E8E2D6" stroke-width="1"/>
    <path d="M90 372H618" stroke="#E8E2D6" stroke-width="1"/>
    <path d="M90 442H618" stroke="#E8E2D6" stroke-width="1"/>
    <path d="M90 512H618" stroke="#E8E2D6" stroke-width="1"/>
    <path d="M138 116V466" stroke="#E8E2D6" stroke-width="1"/>
    <path d="M224 116V466" stroke="#E8E2D6" stroke-width="1"/>
    <path d="M310 116V466" stroke="#E8E2D6" stroke-width="1"/>
    <path d="M396 116V466" stroke="#E8E2D6" stroke-width="1"/>
    <path d="M482 116V466" stroke="#E8E2D6" stroke-width="1"/>
    <path d="M568 116V466" stroke="#E8E2D6" stroke-width="1"/>
  </g>

  <rect x="84" y="96" width="166" height="36" rx="18" fill="rgba(255,255,255,0.08)" stroke="rgba(255,255,255,0.14)"/>
  <text x="167" y="119" text-anchor="middle" fill="#F3ECDD" font-size="15" font-family="system-ui, -apple-system, Segoe UI, sans-serif" letter-spacing="2.2">LUXURY TRAVEL MCP</text>

  <text x="88" y="216" fill="#F8F4EC" font-size="82" font-weight="700" font-family="system-ui, -apple-system, Segoe UI, sans-serif" letter-spacing="-2.7">Bitvoya MCP</text>
  <text x="90" y="276" fill="#D7C8AC" font-size="32" font-family="system-ui, -apple-system, Segoe UI, sans-serif">Luxury hotel intelligence</text>
  <text x="90" y="316" fill="#D7C8AC" font-size="32" font-family="system-ui, -apple-system, Segoe UI, sans-serif">with secure checkout handoff.</text>

  <text x="90" y="388" fill="#EDE6D8" font-size="18" font-family="ui-monospace, SFMono-Regular, Menlo, monospace" letter-spacing="1.2">DISCOVER</text>
  <text x="206" y="388" fill="#8F7650" font-size="18" font-family="ui-monospace, SFMono-Regular, Menlo, monospace">/</text>
  <text x="234" y="388" fill="#EDE6D8" font-size="18" font-family="ui-monospace, SFMono-Regular, Menlo, monospace" letter-spacing="1.2">COMPARE</text>
  <text x="360" y="388" fill="#8F7650" font-size="18" font-family="ui-monospace, SFMono-Regular, Menlo, monospace">/</text>
  <text x="388" y="388" fill="#EDE6D8" font-size="18" font-family="ui-monospace, SFMono-Regular, Menlo, monospace" letter-spacing="1.2">HANDOFF</text>

  <rect x="88" y="420" width="206" height="46" rx="23" fill="url(#gold)"/>
  <text x="191" y="449" text-anchor="middle" fill="#111318" font-size="18" font-weight="700" font-family="system-ui, -apple-system, Segoe UI, sans-serif">Claude 4.6 / GPT-5.4</text>

  <rect x="312" y="420" width="224" height="46" rx="23" fill="rgba(255,255,255,0.08)" stroke="rgba(255,255,255,0.14)"/>
  <text x="424" y="449" text-anchor="middle" fill="#F7F1E5" font-size="18" font-weight="600" font-family="system-ui, -apple-system, Segoe UI, sans-serif">Hosted Streamable HTTP</text>

  <rect x="88" y="490" width="454" height="58" rx="24" fill="rgba(8,14,20,0.44)" stroke="rgba(255,255,255,0.14)"/>
  <text x="112" y="515" fill="#8EE4DA" font-size="16" font-weight="700" font-family="system-ui, -apple-system, Segoe UI, sans-serif">Hosted endpoint</text>
  <text x="112" y="539" fill="#F4F0E7" font-size="24" font-family="system-ui, -apple-system, Segoe UI, sans-serif">https://bitvoya.com/api/mcp</text>

  <g>
    <rect x="752" y="84" width="446" height="472" rx="28" fill="rgba(9,13,20,0.48)" stroke="rgba(255,255,255,0.1)"/>
    <rect x="784" y="116" width="184" height="24" rx="12" fill="rgba(255,255,255,0.08)"/>
    <rect x="784" y="156" width="382" height="152" rx="24" fill="rgba(34,59,77,0.28)" stroke="rgba(255,255,255,0.08)"/>
    <rect x="816" y="188" width="118" height="88" rx="18" fill="rgba(255,255,255,0.05)" stroke="rgba(255,255,255,0.1)"/>
    <path d="M844 254V210L874 184L904 210V254H844Z" fill="rgba(255,255,255,0.08)" stroke="rgba(255,255,255,0.22)"/>
    <path d="M874 184V166" stroke="#F5D28D" stroke-width="4" stroke-linecap="round"/>
    <circle cx="978" cy="202" r="8" fill="#F2CB7C"/>
    <circle cx="1008" cy="202" r="8" fill="#F2CB7C"/>
    <circle cx="1038" cy="202" r="8" fill="#F2CB7C"/>
    <text x="958" y="222" fill="#F6F1E8" font-size="19" font-weight="700" font-family="system-ui, -apple-system, Segoe UI, sans-serif">
      <tspan x="958">Curated hotel</tspan>
      <tspan x="958" dy="24">intelligence</tspan>
    </text>
    <text x="958" y="275" fill="#D8CDBA" font-size="15" font-family="system-ui, -apple-system, Segoe UI, sans-serif">
      <tspan x="958">Benefits, pricing, and premium</tspan>
      <tspan x="958" dy="22">stay value for luxury travel workflows.</tspan>
    </text>
    <rect x="784" y="330" width="382" height="90" rx="24" fill="rgba(255,255,255,0.04)" stroke="rgba(255,255,255,0.08)"/>
    <rect x="812" y="360" width="116" height="18" rx="9" fill="rgba(255,255,255,0.16)"/>
    <rect x="944" y="360" width="96" height="18" rx="9" fill="rgba(255,255,255,0.09)"/>
    <rect x="1054" y="360" width="80" height="18" rx="9" fill="url(#gold)"/>
    <text x="812" y="403" fill="#D8CDBA" font-size="16" font-family="system-ui, -apple-system, Segoe UI, sans-serif">Traveler completes on Bitvoya.</text>
    <rect x="784" y="442" width="382" height="82" rx="24" fill="rgba(255,255,255,0.04)" stroke="rgba(255,255,255,0.08)"/>
    <circle cx="828" cy="483" r="16" fill="url(#teal)"/>
    <path d="M820 483L826 489L837 476" stroke="#081015" stroke-width="4" stroke-linecap="round" stroke-linejoin="round"/>
    <text x="860" y="482" fill="#F6F1E8" font-size="16" font-weight="700" font-family="system-ui, -apple-system, Segoe UI, sans-serif">Payment stays on Bitvoya.</text>
    <text x="860" y="503" fill="#D8CDBA" font-size="15" font-family="system-ui, -apple-system, Segoe UI, sans-serif">
      <tspan x="860">Traveler completes on hosted</tspan>
      <tspan x="860" dy="18">checkout.</tspan>
    </text>
    <circle cx="1128" cy="514" r="44" fill="rgba(8,14,20,0.66)" stroke="rgba(255,255,255,0.14)"/>
    <circle cx="1128" cy="514" r="38" fill="rgba(255,255,255,0.06)"/>
    <text x="876" y="128" text-anchor="middle" dominant-baseline="middle" fill="#8EE4DA" font-size="14" font-family="ui-monospace, SFMono-Regular, Menlo, monospace" letter-spacing="1.6">HOSTED FLOW</text>
    <text x="784" y="320" fill="#F1E8D7" font-size="14" font-family="ui-monospace, SFMono-Regular, Menlo, monospace" letter-spacing="1.6">QUOTE + BENEFITS</text>
    <text x="784" y="432" fill="#F1E8D7" font-size="14" font-family="ui-monospace, SFMono-Regular, Menlo, monospace" letter-spacing="1.6">SECURE HANDOFF</text>
  </g>

  <path d="M736 558C826 525 886 500 960 470C1045 434 1117 385 1198 317" stroke="rgba(255,255,255,0.14)" stroke-width="2" stroke-dasharray="8 10"/>
  <circle cx="737" cy="558" r="5" fill="#F1C873"/>
  <circle cx="959" cy="470" r="5" fill="#F1C873"/>
  <circle cx="1196" cy="318" r="5" fill="#2FBEB2"/>
</svg>
